inDegrees=yes
name=ik_S55_A05_T02
DataType=double
version=3
OpenSimVersion=4.3-2021-08-27-4bc7ad9
endheader
time	pelvis_tilt	pelvis_list	pelvis_rotation	pelvis_tx	pelvis_ty	pelvis_tz	hip_flexion_r	hip_adduction_r	hip_rotation_r	knee_angle_r	knee_angle_r_beta	ankle_angle_r	subtalar_angle_r	mtp_angle_r	hip_flexion_l	hip_adduction_l	hip_rotation_l	knee_angle_l	knee_angle_l_beta	ankle_angle_l	subtalar_angle_l	mtp_angle_l	lumbar_extension	lumbar_bending	lumbar_rotation	arm_flex_r	arm_add_r	arm_rot_r	elbow_flex_r	pro_sup_r	wrist_flex_r	wrist_dev_r	arm_flex_l	arm_add_l	arm_rot_l	elbow_flex_l	pro_sup_l	wrist_flex_l	wrist_dev_l
7.439999999999929	-2.39845962127768	-0.3257372766770874	24.93602936892621	0	0.9399999999999999	0	26.31226225276504	-9.251007038887979	-7.88088734954899	32.15837101286996	0.5612694562524846	0	0	0	26.31226225276504	-9.251007038887979	-7.88088734954899	32.15837101286996	0.5612694562524846	0	0	0	-1.244027536769919	-1.161667082158868	2.15154405588373	48.47592455926864	-16.06236396490658	0.6504252004322263	64.91019884648446	102.542640958497	0	0	20.31794819992935	-14.07082730061841	-2.654337094586387	58.27060999836856	141.0207029140627	0	0
7.459999999999929	-2.393415788446028	-0.3357217950256169	24.93797288202148	0	0.9399999999999999	0	26.31450740774956	-9.251296829169103	-7.88141761349224	32.16036908867546	0.561304329253995	0	0	0	26.31450740774956	-9.251296829169103	-7.88141761349224	32.16036908867546	0.561304329253995	0	0	0	-1.243835296793532	-1.172253141114748	2.13285351560421	48.476177328939	-16.06423200338164	0.8185330893646742	64.927455756423	102.5668477942031	0	0	20.33089229710601	-14.08728174889234	-2.653893716488035	58.2815053504867	141.0274282919482	0	0
7.479999999999928	-2.396143665835623	-0.3335247530217116	24.92948911728	0	0.9399999999999999	0	26.34033474155787	-9.25443029217044	-7.887293150218222	32.18333670579164	0.5617051897940097	0	0	0	26.34033474155787	-9.25443029217044	-7.887293150218222	32.18333670579164	0.5617051897940097	0	0	0	-1.246556462144528	-1.166587327368359	2.10030500387698	48.49970166269118	-15.98485029926584	0.9459127599557346	64.87781511102187	102.5043311087393	0	0	20.31713569619735	-14.10259320753537	-2.665670909157843	58.30341069197636	141.0043209702144	0	0
7.499999999999928	-2.411983905988317	-0.3418347270462344	24.92869664119893	0	0.9399999999999999	0	26.37968136525711	-9.257487396628397	-7.894493018093207	32.22009804004606	0.5623467961141755	0	0	0	26.37968136525711	-9.257487396628397	-7.894493018093207	32.22009804004606	0.5623467961141755	0	0	0	-1.266184498454349	-1.164090717302908	2.082628230243088	48.55327142809457	-15.8908412310895	0.9544530992145066	64.82725147595309	102.3307341924567	0	0	20.33040299784719	-14.09895345949947	-2.660637257904901	58.32776760577735	140.9904366793947	0	0
7.519999999999928	-2.417215776929224	-0.3520807845269127	24.93378589635885	0	0.9399999999999999	0	26.43139169839643	-9.26212335596103	-7.904619866820999	32.26775819289524	0.5631786227033975	0	0	0	26.43139169839643	-9.26212335596103	-7.904619866820999	32.26775819289524	0.5631786227033975	0	0	0	-1.27752677935051	-1.167186247835903	2.072438420258158	48.58150112256997	-15.86249489105981	0.9624279795334542	64.8337407391618	102.0982443200504	0	0	20.37816407847446	-14.11192031133452	-2.62717465954392	58.33728649897047	140.9700519902464	0	0
7.539999999999927	-2.408063940157589	-0.3455225002820512	24.95585942339324	0	0.9399999999999999	0	26.43630117143704	-9.262763296736649	-7.905787404895156	32.27206205985458	0.5632537393524057	0	0	0	26.43630117143704	-9.262763296736649	-7.905787404895156	32.27206205985458	0.5632537393524057	0	0	0	-1.266659279267028	-1.164723848456118	2.069497901266362	48.60822011600418	-15.76310783256776	0.9450179626357991	64.75885906496134	102.1158085253288	0	0	20.39502999827572	-14.11708945728244	-2.625749814384762	58.29243909257121	140.9835327278485	0	0
7.559999999999927	-2.416438899358255	-0.3563523222681264	24.97506001967459	0	0.9399999999999999	0	26.4838764059305	-9.266923542679658	-7.915010453234309	32.31591883584311	0.5640191844927152	0	0	0	26.4838764059305	-9.266923542679658	-7.915010453234309	32.31591883584311	0.5640191844927152	0	0	0	-1.280910415010693	-1.167291627505453	2.057579094750146	48.63294157525961	-15.7475136279956	0.9400948786701897	64.83150577234325	101.9522945572256	0	0	20.43043680143044	-14.14273509326859	-2.622563419782814	58.29983931318677	140.9903305587562	0	0
7.579999999999926	-2.404748571900225	-0.3681697614004016	25.02707237504264	0	0.9399999999999999	0	26.48968408257804	-9.267677446475577	-7.916388461755431	32.32101596107258	0.5641081461103559	0	0	0	26.48968408257804	-9.267677446475577	-7.916388461755431	32.32101596107258	0.5641081461103559	0	0	0	-1.275858420898449	-1.181312919686579	2.007365952902353	48.81289131822637	-15.27725359120606	0.9551805215283367	64.66671542404451	102.0376765723009	0	0	20.42063499710223	-14.19248110927718	-2.617387561592624	58.26904668222941	141.0112012945405	0	0
7.599999999999926	-2.383254075650388	-0.3659494400960099	25.03952283663279	0	0.9399999999999999	0	26.49680938714354	-9.268598542402433	-7.918074931263228	32.32728950707412	0.5642176401438581	0	0	0	26.49680938714354	-9.268598542402433	-7.918074931263228	32.32728950707412	0.5642176401438581	0	0	0	-1.256035919281552	-1.186825826496498	1.958307607143995	49.00700564357452	-14.91432000394092	0.9126761308574814	64.46989199493328	102.5656191782896	0	0	20.36551376673714	-14.25045140635134	-2.613943454945901	58.30514355922607	140.9839512168634	0	0
7.619999999999925	-2.373966950257305	-0.3608994797614396	25.07963284968917	0	0.9399999999999999	0	26.50438066044311	-9.269576193702186	-7.919865934560905	32.33395832118693	0.5643340329073302	0	0	0	26.50438066044311	-9.269576193702186	-7.919865934560905	32.33395832118693	0.5643340329073302	0	0	0	-1.246123869551516	-1.184066791436494	1.899001734251942	49.3196048486703	-14.51552155041141	0.9696250165020488	64.27690681106837	103.217285521158	0	0	20.34019349505716	-14.24365137912339	-2.553973888840178	58.32012185243367	140.9740733740587	0	0
7.639999999999925	-2.377884689136545	-0.363543017418383	25.10534872522953	0	0.9399999999999999	0	26.51457559486903	-9.270896127847628	-7.922282036536975	32.34290764038421	0.5644902279931346	0	0	0	26.51457559486903	-9.270896127847628	-7.922282036536975	32.34290764038421	0.5644902279931346	0	0	0	-1.251488485850691	-1.181946048983157	1.806072635244486	49.75489484802502	-14.0714002008746	1.094243444328723	64.12821106497756	103.835089687313	0	0	20.31987723924954	-14.23873150058594	-2.608342273143689	58.3308980952586	141.0053933927742	0	0
7.659999999999925	-2.385432144529958	-0.3565023771055817	25.14894387922255	0	0.9399999999999999	0	26.51871006212835	-9.271428889790831	-7.923259102445853	32.3465504586739	0.5645538071663416	0	0	0	26.51871006212835	-9.271428889790831	-7.923259102445853	32.3465504586739	0.5645538071663416	0	0	0	-1.255865040337304	-1.17018225498358	1.722585693630969	50.17899520491262	-13.64084830021477	1.328492387790829	64.21543050040475	104.0751006354156	0	0	20.3344537584671	-14.25434962547222	-2.653348073036344	58.31735543596687	140.9938875299787	0	0
7.679999999999924	-2.386989600216254	-0.3457847537014095	25.34364216755576	0	0.9399999999999999	0	26.52898977193649	-9.272761827645107	-7.925698316564886	32.3555486777467	0.5647108557159777	0	0	0	26.52898977193649	-9.272761827645107	-7.925698316564886	32.3555486777467	0.5647108557159777	0	0	0	-1.253657816830473	-1.155607035614131	1.563817285886553	51.19725854063923	-12.43998447357401	2.013955784253795	63.32788908261439	104.5805397316525	0	0	20.37588418893058	-14.24887074827365	-2.620749165945459	58.2772213585118	140.9746961194686	0	0
7.699999999999924	-2.380585118230441	-0.3371680494450426	25.44273197914239	0	0.9399999999999999	0	26.53861835434603	-9.273996580113094	-7.92796775780379	32.36405439963826	0.5648593085682444	0	0	0	26.53861835434603	-9.273996580113094	-7.92796775780379	32.36405439963826	0.5648593085682444	0	0	0	-1.244675891725182	-1.149106570455608	1.522489421125794	51.1677453275999	-12.51391913075747	2.062795545076027	64.24626125946085	104.1992458542087	0	0	20.36536478561582	-14.21797707872688	-2.555224420727451	58.25779382898912	140.9977114988551	0	0
7.719999999999923	-2.393129582779341	-0.3453195690159635	25.50506178174891	0	0.9399999999999999	0	26.54680313655304	-9.275036791596731	-7.929886380377215	32.37133911488117	0.5649864508343033	0	0	0	26.54680313655304	-9.275036791596731	-7.929886380377215	32.37133911488117	0.5649864508343033	0	0	0	-1.260285969758503	-1.148518369673455	1.44663896746071	51.19958616087641	-12.53965770980602	2.154317418051243	65.23411691441923	103.8164130785837	0	0	20.41696927491576	-14.23279567678865	-2.555855165520653	58.21586013237435	140.974831835727	0	0
7.739999999999923	-2.387981422832158	-0.333289817074462	25.8674357175785	0	0.9399999999999999	0	26.56025671276037	-9.276776424036614	-7.933074965840278	32.38311261424726	0.5651919371627231	0	0	0	26.56025671276037	-9.276776424036614	-7.933074965840278	32.38311261424726	0.5651919371627231	0	0	0	-1.253949652524134	-1.128192112767573	1.191361746950879	53.12199247396038	-10.56402746978593	3.194657748857099	63.39973645084238	104.5530384058359	0	0	20.41503641733283	-14.16583600523099	-2.45735118177163	58.20885027284105	140.9952852888292	0	0
